<svg width="375" height="280" viewBox="0 0 375 280" fill="none" xmlns="http://www.w3.org/2000/svg">
<g id="illustration">
<g id="freepik--background-complete--inject-31">
<rect id="Rectangle" y="245.55" width="375" height="0.1875" fill="#EBEBEB"/>
<rect id="Rectangle_2" x="312.585" y="257.617" width="24.84" height="0.1875" fill="#EBEBEB"/>
<rect id="Rectangle_3" x="241.898" y="259.658" width="6.5175" height="0.1875" fill="#EBEBEB"/>
<rect id="Rectangle_4" x="297.443" y="250.658" width="14.3925" height="0.1875" fill="#EBEBEB"/>
<rect id="Rectangle_5" x="39.345" y="251.917" width="32.3925" height="0.1875" fill="#EBEBEB"/>
<rect id="Rectangle_6" x="78.42" y="251.917" width="4.7475" height="0.1875" fill="#EBEBEB"/>
<rect id="Rectangle_7" x="98.6025" y="255.083" width="70.26" height="0.1875" fill="#EBEBEB"/>
<path id="Shape" fill-rule="evenodd" clip-rule="evenodd" d="M32.9325 212.1H177.75C180.115 212.1 182.033 210.183 182.033 207.818V4.2825C182.033 1.91734 180.115 0 177.75 0H32.9325C30.5848 0.00402153 28.6781 1.89742 28.6575 4.245V207.818C28.6575 210.18 30.5703 212.096 32.9325 212.1ZM28.845 4.245C28.845 1.98632 30.6738 0.154137 32.9325 0.15H177.75C180.01 0.154128 181.841 1.98511 181.845 4.245V207.817C181.841 210.077 180.01 211.908 177.75 211.912H32.9325C30.6738 211.908 28.845 210.076 28.845 207.817V4.245Z" fill="#EBEBEB"/>
<path id="Shape_2" fill-rule="evenodd" clip-rule="evenodd" d="M195.157 212.1H339.982C342.342 212.092 344.25 210.177 344.25 207.818V4.245C344.229 1.90033 342.327 0.00812303 339.982 0H195.157C192.809 0.00397731 190.9 1.89621 190.875 4.245V207.818C190.879 210.181 192.794 212.096 195.157 212.1ZM191.062 4.245C191.067 1.98511 192.898 0.154128 195.157 0.15H339.982C342.242 0.154128 344.073 1.98511 344.077 4.245V207.817C344.073 210.077 342.242 211.908 339.982 211.912H195.157C192.898 211.908 191.067 210.077 191.062 207.817V4.245Z" fill="#EBEBEB"/>
<rect id="Rectangle_8" x="269.242" y="56.2575" width="10.6275" height="33.0825" fill="#E6E6E6"/>
<path id="Path" d="M308.677 89.34H273.412L268.087 50.6175H303.352L308.677 89.34Z" fill="#F0F0F0"/>
<path id="Path_2" d="M312.495 89.34H276.075L270.75 50.6175H307.17L312.495 89.34Z" fill="#F5F5F5"/>
<path id="Path_3" d="M278.708 86.2875L274.223 53.67H304.538L309.03 86.2875H278.708Z" fill="white"/>
<path id="Path_4" d="M284.7 76.41L283.012 64.17C282.911 63.5162 283.102 62.8508 283.536 62.3509C283.969 61.851 284.601 61.5672 285.262 61.575H296.28C297.422 61.5663 298.389 62.4143 298.53 63.5475L300.21 75.795C300.309 76.4477 300.116 77.1109 299.683 77.609C299.25 78.1072 298.62 78.39 297.96 78.3825H286.957C285.813 78.3951 284.841 77.5461 284.7 76.41Z" fill="#F5F5F5"/>
<rect id="Rectangle_9" x="54.87" y="20.01" width="158.842" height="97.9875" fill="#E6E6E6"/>
<rect id="Rectangle_10" x="56.775" y="20.01" width="161.018" height="97.9875" fill="#F0F0F0"/>
<rect id="Rectangle_11" x="54.87" y="118.005" width="158.842" height="7.5825" fill="#E6E6E6"/>
<rect id="Rectangle_12" x="63.57" y="118.005" width="161.018" height="7.5825" fill="#F0F0F0"/>
<path id="Rectangle_13" d="M212.077 25.725V112.29L62.49 112.29V25.725L212.077 25.725Z" fill="#FAFAFA"/>
<path id="Path_5" d="M73.47 112.29L107.003 25.725H122.827L89.295 112.29H73.47Z" fill="white"/>
<path id="Path_6" d="M92.7 112.29L126.232 25.725H132.397L98.865 112.29H92.7Z" fill="white"/>
<path id="Path_7" d="M151.365 112.29L184.898 25.725H191.063L157.538 112.29H151.365Z" fill="white"/>
<path id="Rectangle_14" d="M212.07 25.725V112.29H211.343V25.725H212.07Z" fill="#E6E6E6"/>
<rect id="Rectangle_15" x="300.495" y="89.34" width="33.63" height="156.21" fill="#E6E6E6"/>
<path id="Path_8" d="M330.743 245.55H334.125V235.928H327.195L330.743 245.55Z" fill="#F0F0F0"/>
<rect id="Rectangle_16" x="241.568" y="89.34" width="33.63" height="156.21" fill="#E6E6E6"/>
<rect id="Rectangle_17" x="272.242" y="89.34" width="61.8825" height="150.307" fill="#F0F0F0"/>
<path id="Path_9" d="M275.625 245.55H272.242V235.928H279.172L275.625 245.55Z" fill="#F0F0F0"/>
<rect id="Rectangle_18" x="274.867" y="92.0925" width="56.6325" height="70.905" fill="#E6E6E6"/>
<path id="Path_10" d="M309.315 97.6125H297.052C291.725 97.612 286.631 95.4207 282.967 91.5525H323.4C319.738 95.4229 314.643 97.6147 309.315 97.6125Z" fill="#F0F0F0"/>
<rect id="Rectangle_19" x="274.867" y="165.87" width="56.6325" height="70.905" fill="#E6E6E6"/>
<path id="Path_11" d="M309.315 171.39H297.052C291.725 171.39 286.631 169.198 282.967 165.33H323.4C319.738 169.2 314.643 171.392 309.315 171.39Z" fill="#F0F0F0"/>
<path id="Path_12" d="M97.125 138.667H153.09L161.205 171.72H105.233L97.125 138.667Z" fill="#E6E6E6"/>
<path id="Path_13" d="M105.232 171.72L105.465 173.543H161.43L161.205 171.72H105.232Z" fill="#E6E6E6"/>
<path id="Path_14" d="M98.85 138.667H154.815L162.93 171.72H106.957L98.85 138.667Z" fill="#F0F0F0"/>
<path id="Path_15" d="M108.142 170.205L100.77 140.175H153.63L161.002 170.205H108.142Z" fill="white"/>
<path id="Path_16" d="M121.545 171.72L121.77 173.543H183.397L183.172 171.72H121.545Z" fill="#F0F0F0"/>
<rect id="Rectangle_20" x="190.755" y="173.542" width="6.705" height="72" fill="#E6E6E6"/>
<rect id="Rectangle_21" x="194.925" y="173.542" width="4.6575" height="72" fill="#F0F0F0"/>
<rect id="Rectangle_22" x="201.03" y="181.785" width="86.4075" height="8.2425" transform="rotate(180 201.03 181.785)" fill="#F0F0F0"/>
<rect id="Rectangle_23" x="104.91" y="181.785" width="6.705" height="63.7575" fill="#E6E6E6"/>
<rect id="Rectangle_24" x="109.073" y="181.785" width="4.6575" height="63.7575" fill="#F0F0F0"/>
<rect id="Rectangle_25" x="62.4675" y="181.785" width="6.705" height="63.7575" fill="#E6E6E6"/>
<rect id="Rectangle_26" x="66.6375" y="181.785" width="4.6575" height="63.7575" fill="#F0F0F0"/>
<rect id="Rectangle_27" x="148.32" y="181.785" width="6.705" height="63.7575" fill="#E6E6E6"/>
<rect id="Rectangle_28" x="152.482" y="181.785" width="4.6575" height="63.7575" fill="#F0F0F0"/>
<rect id="Rectangle_29" x="62.4675" y="173.542" width="52.1475" height="8.2425" fill="#E6E6E6"/>
<path id="Path_17" d="M219.255 245.55H217.628L213 222.57L212.183 218.542L207.053 193.5H187.553L177 245.55H175.35L186.12 192.54C186.19 192.178 186.502 191.913 186.87 191.902H207.75C208.124 191.898 208.444 192.17 208.5 192.54L213 214.53L213.75 218.55L219.255 245.55Z" fill="#F0F0F0"/>
<path id="Path_18" d="M250.567 245.55H248.932L238.357 193.5H218.857L213.75 218.55L213 222.57L208.327 245.55H206.7L212.182 218.55L212.992 214.538L217.492 192.548C217.565 192.187 217.875 191.924 218.242 191.91H239.055C239.423 191.921 239.735 192.186 239.805 192.548L250.567 245.55Z" fill="#F0F0F0"/>
<path id="Path_19" d="M202.5 192.698H238.335C245.175 192.698 248.97 188.048 250.905 180.383L251.85 176.003C252.497 173.318 251.875 170.486 250.165 168.319C248.454 166.152 245.843 164.89 243.083 164.895H220.583C215.933 164.895 214.702 166.005 211.485 173.01C208.267 180.015 202.5 192.698 202.5 192.698Z" fill="#F0F0F0"/>
<path id="Path_20" d="M222.038 192.698H183.848C182.858 192.698 182.055 191.895 182.055 190.905V190.74C182.055 189.439 182.572 188.192 183.492 187.272C184.412 186.352 185.659 185.835 186.96 185.835H222.038V192.705V192.698Z" fill="#F0F0F0"/>
</g>
<g id="freepik--Shadow--inject-31">
<ellipse id="freepik--path--inject-31" cx="187.5" cy="270.93" rx="145.417" ry="8.49" fill="#F5F5F5"/>
</g>
<g id="freepik--Account--inject-31">
<path id="Path_21" d="M216.472 41.0025H107.475C105.121 40.9865 102.866 41.944 101.242 43.6484C99.6188 45.3528 98.772 47.6523 98.9025 50.0025L109.125 261.93C109.427 266.938 113.543 270.864 118.56 270.93H227.557C229.911 270.946 232.166 269.988 233.788 268.284C235.41 266.579 236.255 264.279 236.122 261.93L225.908 50.0025C225.605 44.9943 221.489 41.068 216.472 41.0025Z" fill="black"/>
<path id="Path_22" d="M220.5 41.0025H111.473C109.119 40.9863 106.864 41.9441 105.242 43.6488C103.62 45.3534 102.775 47.6531 102.908 50.0025L113.123 261.93C113.425 266.938 117.541 270.864 122.558 270.93H231.555C233.908 270.946 236.163 269.988 237.785 268.284C239.408 266.579 240.253 264.279 240.12 261.93L229.905 50.0025C229.604 45.0056 225.505 41.0836 220.5 41.0025Z" fill="#263238"/>
<path id="Path_23" d="M122.25 264.93C120.586 264.888 119.227 263.59 119.107 261.93L108.907 50.0025C108.871 49.2208 109.155 48.4581 109.695 47.8915C110.234 47.3249 110.982 47.0037 111.765 47.0025H220.762C222.429 47.0376 223.793 48.3395 223.905 50.0025L234.12 261.93C234.157 262.71 233.873 263.472 233.335 264.038C232.797 264.605 232.051 264.927 231.27 264.93H122.25Z" fill="#2743FD"/>
<path id="Path_24" opacity="0.1" d="M122.197 263.43C121.368 263.402 120.691 262.757 120.622 261.93L110.407 50.0025C110.393 49.6135 110.536 49.2351 110.805 48.9529C111.073 48.6706 111.443 48.5083 111.832 48.5025H220.83C221.661 48.5268 222.34 49.1736 222.405 50.0025L232.62 261.93C232.634 262.319 232.491 262.697 232.223 262.98C231.955 263.262 231.584 263.424 231.195 263.43H122.197Z" fill="black"/>
<g id="Group" opacity="0.3">
<path id="Shape_3" fill-rule="evenodd" clip-rule="evenodd" d="M133.5 251.25H155.092C155.68 251.255 156.244 251.016 156.648 250.589C157.052 250.162 157.26 249.586 157.222 249L155.67 216.21C155.603 214.985 154.595 214.022 153.367 214.012H131.737C131.15 214.007 130.588 214.247 130.185 214.674C129.782 215.101 129.575 215.677 129.615 216.262L131.19 249.045C131.261 250.273 132.27 251.236 133.5 251.25ZM130.702 215.197C130.967 214.927 131.329 214.775 131.707 214.777L153.337 214.762C154.17 214.773 154.85 215.431 154.89 216.262L156.472 249.045C156.495 249.424 156.36 249.796 156.098 250.072C155.837 250.348 155.473 250.503 155.092 250.5H133.47C132.636 250.489 131.953 249.833 131.91 249L130.327 216.225C130.31 215.846 130.445 215.476 130.702 215.197Z" fill="#FAFAFA"/>
<path id="Path_25" d="M153.052 222.39H132.75C132.543 222.39 132.375 222.222 132.375 222.015C132.375 221.808 132.543 221.64 132.75 221.64H153.075C153.282 221.64 153.45 221.808 153.45 222.015C153.45 222.222 153.282 222.39 153.075 222.39H153.052Z" fill="#FAFAFA"/>
<path id="Path_26" d="M153.263 226.627H132.93C132.725 226.624 132.559 226.458 132.555 226.252C132.555 226.045 132.723 225.877 132.93 225.877H153.263C153.47 225.877 153.638 226.045 153.638 226.252C153.634 226.458 153.468 226.624 153.263 226.627Z" fill="#FAFAFA"/>
<path id="Path_27" d="M153.465 230.865H133.132C132.927 230.861 132.761 230.695 132.757 230.49C132.757 230.283 132.925 230.115 133.132 230.115H153.465C153.672 230.115 153.84 230.283 153.84 230.49C153.84 230.697 153.672 230.865 153.465 230.865Z" fill="#FAFAFA"/>
<path id="Path_28" d="M153.667 235.103H133.342C133.135 235.103 132.967 234.935 132.967 234.728C132.967 234.52 133.135 234.353 133.342 234.353H153.667C153.875 234.353 154.042 234.52 154.042 234.728C154.042 234.935 153.875 235.103 153.667 235.103Z" fill="#FAFAFA"/>
<path id="Path_29" d="M153.87 239.34H133.545C133.338 239.34 133.17 239.172 133.17 238.965C133.17 238.758 133.338 238.59 133.545 238.59H153.87C154.077 238.59 154.245 238.758 154.245 238.965C154.245 239.172 154.077 239.34 153.87 239.34Z" fill="#FAFAFA"/>
<path id="Path_30" d="M149.91 243.577H133.747C133.54 243.577 133.372 243.41 133.372 243.202C133.372 242.995 133.54 242.827 133.747 242.827H149.91C150.117 242.827 150.285 242.995 150.285 243.202C150.281 243.408 150.115 243.574 149.91 243.577Z" fill="#FAFAFA"/>
</g>
<path id="Path_31" opacity="0.2" d="M207.9 68.67H133.65L140.888 218.753C141.62 231.51 152.109 241.521 164.888 241.658H239.138L231.908 91.575C231.182 78.811 220.684 68.7955 207.9 68.67V68.67Z" fill="black"/>
<path id="Path_32" d="M226.088 68.67H133.673C146.452 68.8031 156.943 78.8155 157.673 91.575L163.575 213.75C164.308 226.508 174.797 236.518 187.575 236.655H234.173C240.17 236.717 245.923 234.287 250.06 229.945C254.196 225.602 256.344 219.737 255.99 213.75L250.095 91.575C249.369 78.811 238.872 68.7955 226.088 68.67Z" fill="#FAFAFA"/>
<path id="Path_33" d="M209.385 213.75C209.741 219.734 207.597 225.596 203.465 229.939C199.333 234.281 193.584 236.713 187.59 236.655H279.997C285.992 236.713 291.742 234.281 295.875 229.939C300.008 225.597 302.154 219.734 301.8 213.75H209.385Z" fill="#E6E6E6"/>
<path id="Path_34" d="M239.1 144.503H173.79C172.84 144.492 172.06 143.748 172.005 142.8C171.98 142.356 172.14 141.921 172.447 141.598C172.754 141.276 173.18 141.095 173.625 141.098H238.935C239.897 141.092 240.694 141.84 240.75 142.8C240.775 143.25 240.611 143.689 240.298 144.013C239.985 144.336 239.55 144.514 239.1 144.503Z" fill="#2743FD"/>
<path id="Path_35" d="M239.61 155.13H174.3C173.35 155.12 172.57 154.376 172.515 153.428C172.49 152.983 172.65 152.548 172.957 152.226C173.264 151.904 173.69 151.722 174.135 151.725H239.452C240.4 151.739 241.175 152.482 241.23 153.428C241.255 153.872 241.095 154.307 240.788 154.629C240.481 154.951 240.055 155.133 239.61 155.13Z" fill="#2743FD"/>
<path id="Path_36" d="M240.128 165.75H174.81C173.86 165.74 173.08 164.996 173.025 164.048C173 163.603 173.16 163.168 173.467 162.846C173.774 162.524 174.2 162.342 174.645 162.345H240C240.95 162.355 241.73 163.099 241.785 164.048C241.81 164.498 241.646 164.939 241.33 165.263C241.015 165.587 240.579 165.763 240.128 165.75Z" fill="#2743FD"/>
<path id="Path_37" d="M240.638 176.393H175.328C174.379 176.379 173.601 175.637 173.543 174.69C173.518 174.246 173.678 173.811 173.984 173.488C174.291 173.166 174.717 172.985 175.163 172.988H240.473C241.422 172.998 242.202 173.742 242.258 174.69C242.282 175.134 242.122 175.569 241.816 175.892C241.509 176.214 241.083 176.395 240.638 176.393Z" fill="#2743FD"/>
<path id="Path_38" d="M215.182 187.02H175.837C174.888 187.01 174.108 186.266 174.052 185.318C174.028 184.873 174.188 184.438 174.494 184.116C174.801 183.794 175.227 183.612 175.672 183.615H215.017C215.967 183.625 216.747 184.369 216.802 185.318C216.827 185.762 216.667 186.197 216.361 186.519C216.054 186.841 215.628 187.023 215.182 187.02Z" fill="#2743FD"/>
<ellipse id="Oval" cx="204.677" cy="107.788" rx="20.0325" ry="21.0225" transform="rotate(-45.69 204.677 107.788)" fill="#2743FD"/>
<path id="Path_39" d="M221.61 107.775C221.752 110.562 221.181 113.339 219.952 115.845C217.234 121.327 211.619 124.772 205.5 124.71C199.189 124.662 193.37 121.294 190.185 115.845C188.724 113.395 187.887 110.624 187.747 107.775C187.485 103.351 189.071 99.0161 192.127 95.8056C195.182 92.5952 199.433 90.7969 203.865 90.84C213.306 90.9573 221.052 98.3496 221.61 107.775Z" fill="white"/>
<path id="Path_40" opacity="0.4" d="M219.952 115.845C217.234 121.327 211.619 124.772 205.5 124.71C199.189 124.662 193.37 121.294 190.185 115.845C194.501 112.883 199.62 111.313 204.855 111.345C210.217 111.355 215.46 112.918 219.952 115.845Z" fill="#2743FD"/>
<ellipse id="Oval_2" opacity="0.4" cx="204.392" cy="101.972" rx="7.365" ry="7.725" transform="rotate(-45.69 204.392 101.972)" fill="#2743FD"/>
</g>
<g id="freepik--character-male--inject-31">
<path id="Path_41" d="M267.57 265.305H262.065L261.51 252.54H267.022L267.57 265.305Z" fill="#FFB573"/>
<path id="Path_42" opacity="0.2" d="M261.518 252.548L261.795 259.125H267.308L267.023 252.548H261.518Z" fill="black"/>
<path id="Path_43" d="M314.467 250.35L309.232 252.06L302.64 240.788L307.882 239.078L314.467 250.35Z" fill="#FFB573"/>
<path id="Path_44" opacity="0.2" d="M307.882 239.078L302.64 240.788L306.045 246.6L311.28 244.89L307.882 239.078Z" fill="black"/>
<path id="Path_45" d="M286.2 80.94C286.883 81.7725 287.46 82.515 288.053 83.3325C288.645 84.15 289.208 84.93 289.77 85.74C290.88 87.3675 291.945 89.0325 292.943 90.75C295.018 94.2345 296.711 97.9336 297.99 101.783L298.118 102.158L298.178 102.353L298.26 102.66L298.41 103.275L298.493 103.838C298.581 104.511 298.609 105.191 298.575 105.87C298.505 107.014 298.34 108.151 298.08 109.268C297.605 111.268 296.976 113.229 296.198 115.133C294.714 118.781 292.918 122.294 290.828 125.633L287.078 123.84C288.203 120.323 289.328 116.722 290.153 113.22C290.582 111.532 290.908 109.818 291.128 108.09C291.22 107.344 291.248 106.591 291.21 105.84C291.199 105.572 291.164 105.306 291.105 105.045L291.068 104.91C291.054 104.886 291.041 104.861 291.03 104.835L290.97 104.693L290.85 104.4L290.348 103.223L289.785 102.053C289.41 101.303 288.998 100.493 288.585 99.7125C287.73 98.1675 286.808 96.63 285.848 95.1C284.888 93.57 283.868 92.1 282.848 90.6C281.828 89.1 280.71 87.6 279.698 86.2425L286.2 80.94Z" fill="#FFB573"/>
<path id="Path_46" d="M287.422 122.91L285.27 127.673H291.427C291.427 127.673 292.41 124.058 290.175 122.595L287.422 122.91Z" fill="#FFB573"/>
<path id="Path_47" d="M285.99 133.028L291.705 131.925L291.427 127.673H285.27L285.99 133.028Z" fill="#FFB573"/>
<path id="Path_48" d="M258.915 56.7675C258.915 57.2175 258.683 57.5775 258.39 57.5775C258.098 57.5775 257.865 57.2175 257.865 56.7675C257.865 56.3175 258.105 55.965 258.39 55.965C258.675 55.965 258.915 56.325 258.915 56.7675Z" fill="#263238"/>
<path id="Path_49" d="M258.75 57.5775C258.221 58.9345 257.507 60.2117 256.628 61.3725C257.241 61.8125 258.017 61.9606 258.75 61.7775V57.5775Z" fill="#ED893E"/>
<path id="Path_50" d="M260.49 54.3075C260.435 54.3082 260.382 54.2896 260.34 54.255C259.81 53.8564 259.124 53.7313 258.487 53.9175C258.358 53.9529 258.222 53.8842 258.173 53.7585C258.125 53.6327 258.18 53.4908 258.3 53.43C259.102 53.1754 259.977 53.3264 260.647 53.835C260.762 53.9219 260.789 54.0836 260.707 54.2025C260.655 54.2689 260.575 54.3075 260.49 54.3075Z" fill="#263238"/>
<path id="Path_51" d="M273.263 61.89C272.468 65.925 271.68 73.3125 274.5 75.9975C274.5 75.9975 273.398 80.085 265.913 80.085C257.663 80.085 261.975 75.9975 261.975 75.9975C266.475 74.925 266.355 71.595 265.568 68.46L273.263 61.89Z" fill="#FFB573"/>
<path id="Path_52" d="M275.58 77.4C276.173 76.11 276.825 74.625 275.475 74.16C273.975 73.65 265.905 73.1325 263.108 74.0925C262.364 74.2984 261.735 74.7937 261.36 75.4675C260.985 76.1414 260.896 76.9374 261.113 77.6775L275.58 77.4Z" fill="#263238"/>
<path id="Shape_4" fill-rule="evenodd" clip-rule="evenodd" d="M306.892 254.025C307.237 254.078 307.695 253.763 308.1 253.373C308.448 253.036 308.76 252.664 309.03 252.263C309.059 252.219 309.059 252.163 309.03 252.12C309 252.08 308.951 252.06 308.902 252.068C308.805 252.075 307.005 252.375 306.555 253.073C306.452 253.218 306.419 253.402 306.465 253.575C306.498 253.8 306.669 253.98 306.892 254.025ZM306.772 253.208C306.803 253.164 306.838 253.124 306.877 253.088C307.403 252.726 308.003 252.485 308.632 252.383C308.13 253.013 307.312 253.823 306.93 253.763C306.892 253.763 306.78 253.74 306.72 253.508C306.692 253.405 306.711 253.295 306.772 253.208Z" fill="#2743FD"/>
<path id="Shape_5" fill-rule="evenodd" clip-rule="evenodd" d="M308.94 252.323L309 252.285C309.017 252.27 309.028 252.248 309.03 252.225C309.044 252.179 309.03 252.129 308.992 252.098C308.991 252.096 308.989 252.094 308.986 252.092C308.876 251.996 307.725 250.997 306.922 251.055C306.722 251.07 306.535 251.164 306.405 251.318C306.264 251.463 306.239 251.685 306.345 251.858C306.69 252.383 308.317 252.488 308.94 252.323ZM306.607 251.49L306.652 251.445H306.667C306.742 251.371 306.84 251.326 306.945 251.318C307.565 251.415 308.144 251.691 308.61 252.113C307.905 252.195 306.765 252.023 306.562 251.715C306.562 251.713 306.561 251.712 306.56 251.71C306.543 251.677 306.508 251.611 306.607 251.49Z" fill="#2743FD"/>
<path id="Shape_6" fill-rule="evenodd" clip-rule="evenodd" d="M258.233 265.17C258.458 265.485 259.14 265.583 259.845 265.583C260.411 265.58 260.975 265.53 261.533 265.433C261.583 265.421 261.622 265.379 261.63 265.328C261.643 265.274 261.619 265.218 261.57 265.193C261.488 265.14 259.56 264.045 258.645 264.293C258.471 264.334 258.322 264.445 258.233 264.6C258.107 264.769 258.107 265.001 258.233 265.17ZM258.72 264.518C258.805 264.506 258.89 264.506 258.975 264.518C259.733 264.605 260.467 264.839 261.135 265.208C260.115 265.35 258.72 265.343 258.465 264.99C258.405 264.945 258.375 264.863 258.465 264.698C258.521 264.604 258.613 264.539 258.72 264.518Z" fill="#2743FD"/>
<path id="Shape_7" fill-rule="evenodd" clip-rule="evenodd" d="M261.458 265.433H261.51C261.543 265.441 261.578 265.435 261.608 265.418C261.644 265.388 261.666 265.344 261.668 265.298C261.667 265.296 261.667 265.292 261.666 265.288C261.65 265.147 261.489 263.735 260.813 263.175C260.604 263.001 260.333 262.92 260.063 262.95C259.703 262.988 259.575 263.168 259.575 263.318C259.478 263.933 260.798 265.133 261.458 265.433ZM260.093 263.183H260.168V263.198C260.32 263.2 260.468 263.252 260.588 263.348C261.01 263.819 261.273 264.413 261.338 265.043C260.67 264.638 259.778 263.7 259.838 263.325C259.838 263.295 259.853 263.183 260.093 263.183Z" fill="#2743FD"/>
<path id="Path_53" d="M308.775 251.453L313.275 247.17C313.436 247.011 313.688 246.989 313.875 247.118L318.045 249.908C318.249 250.045 318.379 250.27 318.397 250.516C318.414 250.762 318.318 251.002 318.135 251.168C316.552 252.668 315.705 253.275 313.74 255.15C312.525 256.313 308.91 260.25 307.237 261.855C305.565 263.46 303.765 262.005 304.305 261.203C306.735 257.595 308.25 254.138 308.385 252.315C308.409 251.991 308.547 251.685 308.775 251.453Z" fill="#263238"/>
<path id="Path_54" d="M262.095 264.668H268.095C268.319 264.666 268.514 264.823 268.56 265.043L269.647 269.94C269.703 270.178 269.645 270.429 269.492 270.62C269.338 270.81 269.105 270.919 268.86 270.915C266.685 270.915 263.55 270.758 260.82 270.758C257.632 270.758 254.88 270.93 251.137 270.93C248.887 270.93 248.25 268.643 249.195 268.433C253.5 267.495 257.025 267.39 260.745 265.095C261.146 264.829 261.614 264.681 262.095 264.668Z" fill="#263238"/>
<path id="Path_55" d="M254.25 88.5C252.06 91.725 249.802 94.74 247.372 97.7175C244.933 100.731 242.327 103.606 239.565 106.328L238.5 107.363L238.23 107.618L238.035 107.798L237.75 108C237.397 108.285 237.018 108.536 236.617 108.75C235.352 109.418 233.958 109.809 232.53 109.898C230.35 110.026 228.163 109.845 226.035 109.358C222.178 108.507 218.438 107.192 214.897 105.443L216.277 101.543C219.789 102.245 223.341 102.73 226.912 102.998C228.482 103.122 230.061 103.056 231.615 102.803C232.061 102.736 232.487 102.569 232.86 102.315C232.897 102.315 232.86 102.27 232.86 102.27L232.92 102.21L233.137 101.963L234.03 100.988C236.37 98.3175 238.642 95.4675 240.847 92.5575C243.052 89.6475 245.265 86.6625 247.372 83.7525L254.25 88.5Z" fill="#FFB573"/>
<path id="Path_56" d="M284.37 77.25C289.53 78.435 295.455 92.5125 295.455 92.5125L285.082 99.6225C282.506 95.9206 280.222 92.0238 278.25 87.9675C275.175 81.525 279.09 76.035 284.37 77.25Z" fill="#2743FD"/>
<path id="Path_57" opacity="0.3" d="M280.665 86.25L285.57 99.3075L285.083 99.645C285.083 99.645 282.96 96.645 280.665 92.6475L280.665 86.25Z" fill="black"/>
<path id="Path_58" d="M253.5 77.5275C253.5 77.5275 247.635 84.15 253.178 125.152H282.645C282.848 120.652 280.005 98.5575 284.37 77.2425C281.11 76.6156 277.813 76.1997 274.5 75.9975C270.328 75.7573 266.147 75.7573 261.975 75.9975C259.114 76.2857 256.281 76.7973 253.5 77.5275Z" fill="#2743FD"/>
<path id="Path_59" opacity="0.3" d="M256.77 89.385C256.003 94.0379 253.992 98.3968 250.95 102C250.83 99.36 250.785 96.99 250.792 94.8675L256.77 89.385Z" fill="black"/>
<path id="Path_60" d="M259.312 81.9975C260.062 87.21 249.758 100.538 249.758 100.538L239.43 93.4275C239.43 93.4275 242.295 86.085 247.118 81.27C252.63 75.75 258.525 76.32 259.312 81.9975Z" fill="#2743FD"/>
<path id="Path_61" d="M216.99 102L212.947 97.8225L208.635 103.38C208.635 103.38 211.92 106.552 215.827 105.63L216.99 102Z" fill="#FFB573"/>
<path id="Path_62" d="M207.397 95.4975L205.545 101.333L208.635 103.358L212.947 97.8L207.397 95.4975Z" fill="#FFB573"/>
<path id="Path_63" d="M273.75 55.83C273.412 61.2825 273.495 64.5 270.75 67.2975C266.602 71.5125 259.867 69.015 258.57 63.5475C257.392 58.6425 258.142 50.5425 263.482 48.375C265.874 47.3923 268.604 47.7189 270.696 49.238C272.788 50.7571 273.944 53.2518 273.75 55.83Z" fill="#FFB573"/>
<path id="Path_64" d="M278.498 44.4375C280.178 45.9825 279.465 47.7075 278.588 48.03C281.31 48.5925 281.708 50.76 280.275 55.335C278.91 59.715 275.603 65.5875 271.47 65.9475C265.26 66.4875 263.445 60.015 263.4 53.595C259.89 53.8125 261.405 50.7 257.093 51.42C253.343 52.0425 254.753 49.1175 251.565 47.8425C247.868 46.3425 248.61 40.68 252.06 42.3075C252.06 42.3075 250.463 43.3575 252.323 44.3475C254.183 45.3375 254.003 43.05 257.685 42.7725C261.368 42.495 261.795 45.645 266.1 43.7475C271.5 41.3625 275.048 41.25 278.498 44.4375Z" fill="#263238"/>
<path id="Path_65" d="M276.427 48C276.931 47.1935 277.903 46.8125 278.82 47.0625C280.507 47.4225 280.642 48.165 281.7 48.0675C282.757 47.97 282.375 49.095 282.375 49.095C282.375 49.095 282.09 48.2475 280.815 48.72C279.54 49.1925 278.707 48.0375 278.16 48.555C277.612 49.0725 276.427 48 276.427 48Z" fill="#263238"/>
<path id="Path_66" d="M266.34 57.315C266.1 58.6521 265.422 59.8713 264.413 60.78C263.078 61.965 261.923 61.0125 261.878 59.3925C261.878 57.93 262.5 55.545 264.038 54.975C265.575 54.405 266.618 55.695 266.34 57.315Z" fill="#FFB573"/>
<path id="Path_67" d="M263.625 125.152C263.625 125.152 269.88 167.25 273.315 183C277.065 200.25 303.202 246.15 303.202 246.15L312.803 243.03C312.803 243.03 291.99 201.675 289.845 184.567C287.512 166.005 282.645 125.122 282.645 125.122L263.625 125.152Z" fill="#263238"/>
<path id="Path_68" d="M300.517 243.15C300.48 243.15 302.715 246.51 302.715 246.51L313.5 243L312.232 239.775L300.517 243.15Z" fill="#2743FD"/>
<path id="Path_69" opacity="0.3" d="M267.577 140.152C274.807 141.57 274.042 168.533 273.172 182.4C271.087 172.598 268.035 153.735 265.95 140.347C266.454 140.099 267.029 140.03 267.577 140.152Z" fill="black"/>
<path id="Path_70" d="M253.178 125.152C253.178 125.152 252.428 166.35 253.013 183.15C253.635 200.625 259.763 257.85 259.763 257.85H269.1C269.1 257.85 269.438 201.645 269.85 184.485C270.3 165.735 272.558 125.152 272.558 125.152L253.178 125.152Z" fill="#263238"/>
<path id="Path_71" d="M257.948 254.13C257.903 254.13 258.473 258.008 258.473 258.008H269.828L270.135 254.55L257.948 254.13Z" fill="#2743FD"/>
</g>
</g>
</svg>
